<?xml version="1.0" encoding="UTF-8" standalone="no"?>
<!-- Generator: Adobe Illustrator 26.5.0, SVG Export Plug-In . SVG Version: 6.00 Build 0)  -->

<svg
   version="1.1"
   id="Layer_1"
   x="0px"
   y="0px"
   viewBox="0 0 32 32"
   xml:space="preserve"
   sodipodi:docname="map_icon.svg"
   width="32"
   height="32"
   inkscape:version="1.2.2 (732a01da63, 2022-12-09)"
   xmlns:inkscape="http://www.inkscape.org/namespaces/inkscape"
   xmlns:sodipodi="http://sodipodi.sourceforge.net/DTD/sodipodi-0.dtd"
   xmlns="http://www.w3.org/2000/svg"
   xmlns:svg="http://www.w3.org/2000/svg"><defs
   id="defs1263" /><sodipodi:namedview
   id="namedview1261"
   pagecolor="#ffffff"
   bordercolor="#000000"
   borderopacity="0.25"
   inkscape:showpageshadow="2"
   inkscape:pageopacity="0.0"
   inkscape:pagecheckerboard="0"
   inkscape:deskcolor="#d1d1d1"
   showgrid="false"
   showborder="false"
   inkscape:zoom="29.5"
   inkscape:cx="10.983051"
   inkscape:cy="16.338983"
   inkscape:window-width="2256"
   inkscape:window-height="1470"
   inkscape:window-x="-11"
   inkscape:window-y="-11"
   inkscape:window-maximized="1"
   inkscape:current-layer="Layer_1" />
<g
   id="Page-2"
   transform="matrix(4.2857143,0,0,4.2857143,-1.1428572,-1.1428572)">
	<g
   id="world"
   transform="translate(-4,-4)">
		<path
   id="Shape"
   d="m 8,4.5 c 1.9,0 3.5,1.6 3.5,3.5 0,1.9 -1.6,3.5 -3.5,3.5 C 6.1,11.5 4.5,9.9 4.5,8 4.5,6.1 6.1,4.5 8,4.5 Z M 8,4.8 C 7.6,4.8 7.2,4.9 6.8,5 V 5.3 L 6.9,5.4 7.3,5.2 h 0.1 c 0.1,0 0.1,0 0.1,0 v 0 C 7.5,5.1 8,5.4 8,5.5 v 0 0 C 8,5.5 8,5.6 7.9,5.9 8,6 8,6 7.9,6 V 6 L 7.5,6.1 v 0 L 7.3,6.4 v 0.2 0.1 0 c 0,0 0,0 0,0.1 v 0 L 6.9,7.1 c 0,0 -0.1,0.1 -0.1,0 v 0 L 6.5,7 H 6.3 C 6.2,7 6.2,7 6.1,7.1 v 0 L 6,7.2 v 0.1 c 0,0 0,0 0,0.1 v 0 0.4 L 6.5,7.9 6.7,7.8 h 0.1 v 0 L 7.5,8 c 0,0 0.1,0 0.1,0.1 v 0 l 0.2,0.3 0.7,0.2 v 0 0 c 0,0 0,0 0.1,0.1 0,0 0,0 0,0.1 v 0 0.8 0.1 0 l -0.8,0.8 -0.2,0.7 c 0.1,0 0.2,0 0.4,0 0.8,0 1.6,-0.3 2.2,-0.9 v 0 C 10.1,10.2 10,10.1 10,10 V 10 9.4 L 9.7,9.1 c 0,0 0,0 0,-0.1 V 9 L 9.6,8.6 9.2,8.5 H 9 v 0 c 0,0 0,0 -0.1,0 v 0 L 8.8,8.1 C 8.7,8 8.7,7.9 8.7,7.8 L 8.8,7.3 v -0.1 0 0 c 0,0 0,0 0.5,-0.4 h 0.1 v 0 h 0.6 0.1 v 0 l 0.4,0.1 v 0 0 0 h 0.3 c 0,0 0.1,0 0.2,0.1 C 10.9,6.8 10.8,6.6 10.7,6.4 v 0 C 10.6,6.5 10.5,6.5 10.4,6.5 10.3,6.5 10.2,6.5 10,6.4 9.9,6.3 9.8,6.3 9.7,6.4 v 0 L 9.2,6.5 c 0,0 -0.1,0 -0.2,0 L 8.9,6.4 V 6.3 C 8.7,6.2 8.7,6.1 8.7,6.1 v 0 -0.2 c 0,-0.1 0,-0.2 0,-0.3 0,0 0,-0.1 0.1,-0.1 v 0 L 9.2,5.3 c 0,0 0,0 0.1,0 v 0 0 0 L 9.5,5.4 9.6,5.3 C 9.1,4.9 8.6,4.8 8,4.8 Z M 6.5,5.2 C 5.7,5.6 5.2,6.3 4.9,7.2 L 5.4,8 6,8.4 c 0,0 0,0 0.1,0 v 0 c 0,0 0,0 0,0.1 v 0 l 0.1,0.9 0.5,0.3 0.1,0.1 v 0 L 7,11 v 0 h 0.1 v 0 h 0.1 v 0 l 0.2,-0.7 c 0,0 0,-0.1 0.1,-0.1 v 0 L 8.2,9.5 V 8.8 L 7.6,8.6 c 0,0 -0.1,0 -0.1,-0.1 v 0 L 7.4,8.2 6.8,8.1 6.6,8.2 c 0,0 0,0 -0.1,0 v 0 0 c -0.1,0 -0.2,0 -0.7,-0.1 0,0 -0.1,0 -0.1,-0.1 V 8 L 5.6,7.4 V 7.3 C 5.6,7.2 5.7,7.1 5.8,7 6,6.8 6.1,6.8 6.2,6.8 v 0 h 0.2 v 0 0 L 6.6,6.9 7,6.6 V 6.4 6.3 6.3 L 7.2,6 c 0,0 0,0 0.1,-0.1 H 7.4 L 7.7,5.8 V 5.7 L 7.6,5.5 7.4,5.4 7.1,5.6 7,5.7 v 0 H 6.9 6.8 v 0 L 6.5,5.5 c 0,0 0,0 0,-0.1 v 0 0 c 0,0 0,0 0,-0.1 z M 4.8,7.6 c 0,0.1 0,0.3 0,0.4 0,1.3 0.8,2.4 1.9,2.9 L 6.5,9.9 6,9.6 v 0 0 c 0,0 0,0 0,-0.1 v 0 L 5.8,8.6 5.2,8.2 c 0,0 0,0 -0.1,-0.1 v 0 z M 10,7 H 9.5 L 9.2,7.2 9.1,7.3 9,7.8 v 0 0 l 0.2,0.3 0.3,0.1 0.2,0.1 v 0 0 0 0 0 0.1 0 L 10,9 10.2,9.2 v 0 c 0,0 0,0 0.1,0.1 v 0 0.1 0 0.6 0.1 0 0 c 0.5,-0.6 0.8,-1.3 0.8,-2.2 0,-0.2 0,-0.5 -0.1,-0.7 L 10.8,7.1 h -0.1 v 0 0 h -0.3 c 0,0 -0.1,0 -0.4,-0.1 z M 9.8,5.3 9.7,5.5 c 0,0 0,0 -0.1,0.1 H 9.5 v 0 0 0 L 9.3,5.5 9,5.7 V 6 6 6 L 9.1,6.1 H 9.2 L 9.6,5.9 C 9.8,6 10,6 10.2,6 v 0 h 0.1 c 0.1,0.1 0.2,0.1 0.2,0.1 0.1,0 0.1,0 0.1,-0.1 V 6 C 10.4,5.8 10.2,5.6 9.8,5.3 Z" />
	</g>
</g>
</svg>
