<?xml version="1.0" encoding="UTF-8" standalone="no"?>
<svg
   fill="#000000"
   viewBox="0 0 32 32"
   width="32"
   height="32"
   version="1.1"
   id="svg1349"
   sodipodi:docname="price_icon.svg"
   inkscape:version="1.2.2 (732a01da63, 2022-12-09)"
   xmlns:inkscape="http://www.inkscape.org/namespaces/inkscape"
   xmlns:sodipodi="http://sodipodi.sourceforge.net/DTD/sodipodi-0.dtd"
   xmlns="http://www.w3.org/2000/svg"
   xmlns:svg="http://www.w3.org/2000/svg">
  <defs
     id="defs1353" />
  <sodipodi:namedview
     id="namedview1351"
     pagecolor="#ffffff"
     bordercolor="#000000"
     borderopacity="0.25"
     inkscape:showpageshadow="2"
     inkscape:pageopacity="0.0"
     inkscape:pagecheckerboard="0"
     inkscape:deskcolor="#d1d1d1"
     showgrid="false"
     showborder="false"
     inkscape:zoom="11.8"
     inkscape:cx="7.9661017"
     inkscape:cy="10"
     inkscape:window-width="2256"
     inkscape:window-height="1470"
     inkscape:window-x="-11"
     inkscape:window-y="-11"
     inkscape:window-maximized="1"
     inkscape:current-layer="svg1349" />
  <g
     id="g1358"
     transform="matrix(0.65225173,0,0,0.65225173,-0.30855836,-0.30388818)">
    <path
       fill="none"
       stroke="#000000"
       stroke-linecap="round"
       stroke-miterlimit="10"
       stroke-width="2"
       d="m 39,8 a 3,3 0 1 0 0,6 3,3 0 1 0 0,-6 z"
       id="path1343" />
    <path
       fill="none"
       stroke="#000000"
       stroke-linecap="round"
       stroke-miterlimit="10"
       stroke-width="2"
       d="M 47,5.5 C 47,4.119 45.881,3 44.5,3 44.344,3 29.624,3.002 29.624,3.002 c -1.33,0 -2.603,-0.07 -3.341,0.668 L 3.554,26.398 c -0.739,0.738 -0.739,1.936 0,2.674 l 17.374,17.374 c 0.738,0.738 1.936,0.738 2.674,0 L 46.33,23.717 c 0.738,-0.737 0.668,-1.98 0.668,-3.34 0,0 0.002,-14.721 0.002,-14.877 z"
       id="path1345" />
    <path
       d="m 31.996,24.975 c -0.011,-1.524 -0.417,-2.687 -1.217,-3.486 -0.822,-0.822 -1.853,-1.15 -3.091,-0.986 -0.987,0.131 -2.028,0.559 -3.124,1.283 l 4.652,4.652 -1.446,0.559 -4.324,-4.324 c -0.099,0.077 -0.191,0.16 -0.278,0.248 -0.088,0.088 -0.17,0.17 -0.247,0.246 -0.065,0.066 -0.126,0.126 -0.181,0.182 -0.055,0.055 -0.105,0.113 -0.148,0.18 l 4.094,4.094 -1.43,0.576 -3.585,-3.585 c -1.995,2.719 -2.132,4.938 -0.411,6.659 0.525,0.525 1.096,0.889 1.71,1.085 0.45,0.144 1.118,0.229 2.006,0.263 l -1.727,1.727 C 22.044,34.085 20.964,33.477 20.01,32.524 17.325,29.838 17.347,26.67 20.076,23.02 l -1.266,-1.266 1.446,-0.56 0.757,0.757 c 0.043,-0.066 0.093,-0.126 0.147,-0.181 0.054,-0.055 0.11,-0.11 0.165,-0.165 0.098,-0.098 0.191,-0.191 0.279,-0.279 0.088,-0.088 0.175,-0.164 0.264,-0.23 l -1.201,-1.199 1.431,-0.576 0.888,0.888 c 1.611,-1.085 3.172,-1.649 4.686,-1.693 1.711,-0.065 3.212,0.548 4.506,1.841 0.997,0.998 1.644,2.335 1.939,4.013 z"
       id="path1347" />
  </g>
</svg>
